<svg xmlns="http://www.w3.org/2000/svg" xmlns:xlink="http://www.w3.org/1999/xlink" width="500" zoomAndPan="magnify" viewBox="0 0 375 374.999991" height="500" preserveAspectRatio="xMidYMid meet" version="1.0"><defs><g/></defs><g fill="#354f52" fill-opacity="1"><g transform="translate(160.641791, 351.498859)"><g><path d="M 18.890625 0 L 18.890625 -209.9375 L 180.25 -209.9375 L 180.25 -172.140625 L 62.375 -172.140625 L 62.375 -124.15625 L 140.0625 -124.15625 L 140.0625 -87.578125 L 62.375 -87.578125 L 62.375 -37.78125 L 181.4375 -37.78125 L 181.4375 0 Z M 18.890625 0 "/></g></g></g><path stroke-linecap="butt" transform="matrix(3.748875, 0, 0, 3.748875, 20.907696, -85.216283)" fill="none" stroke-linejoin="miter" d="M 5.038625 27.004315 L 31.367354 27.004315 C 36.965908 27.004315 41.523524 28.429742 45.039162 31.281639 C 48.554799 34.132494 50.312618 37.824226 50.312618 42.355793 C 50.312618 44.815906 49.700976 47.062413 48.476651 49.09323 C 47.252325 51.111544 45.572655 52.784962 43.43764 54.113486 C 46.10719 55.402414 48.242206 57.153981 49.843728 59.367144 C 51.445249 61.580308 52.246531 64.047715 52.246531 66.769364 C 52.246531 71.613525 50.442866 75.532409 46.835534 78.527057 C 43.241748 81.509201 38.509079 83.000273 32.636484 83.000273 L 5.038625 83.000273 Z M 30.64422 36.593649 L 16.641063 36.593649 L 16.641063 49.874715 L 30.64422 49.874715 C 33.092871 49.874715 35.065338 49.275577 36.562662 48.078343 C 38.059986 46.880067 38.808127 45.266041 38.808127 43.234182 C 38.808127 41.215868 38.059986 39.608094 36.562662 38.409818 C 35.065338 37.199039 33.092871 36.593649 30.64422 36.593649 Z M 31.758096 73.391141 C 34.426604 73.391141 36.562662 72.739905 38.164184 71.437431 C 39.765705 70.134957 40.565945 68.364634 40.565945 66.125421 C 40.565945 63.989364 39.765705 62.257595 38.164184 60.930113 C 36.562662 59.588044 34.426604 58.918051 31.758096 58.918051 L 16.641063 58.918051 L 16.641063 73.391141 Z M 31.758096 73.391141 " stroke="#eee3dc" stroke-width="2" stroke-opacity="1" stroke-miterlimit="4"/><g fill="#c8553d" fill-opacity="1"><g transform="translate(20.907696, 225.940383)"><g><path d="M 18.890625 -209.9375 L 117.5625 -209.9375 C 138.550781 -209.9375 155.644531 -204.585938 168.84375 -193.890625 C 182.039062 -183.191406 188.640625 -169.347656 188.640625 -152.359375 C 188.640625 -143.160156 186.335938 -134.757812 181.734375 -127.15625 C 177.140625 -119.5625 170.84375 -113.265625 162.84375 -108.265625 C 172.84375 -103.460938 180.84375 -96.910156 186.84375 -88.609375 C 192.84375 -80.316406 195.84375 -71.070312 195.84375 -60.875 C 195.84375 -42.6875 189.09375 -27.992188 175.59375 -16.796875 C 162.09375 -5.597656 144.347656 0 122.359375 0 L 18.890625 0 Z M 114.859375 -173.953125 L 62.375 -173.953125 L 62.375 -124.15625 L 114.859375 -124.15625 C 124.054688 -124.15625 131.453125 -126.40625 137.046875 -130.90625 C 142.648438 -135.40625 145.453125 -141.453125 145.453125 -149.046875 C 145.453125 -156.648438 142.648438 -162.703125 137.046875 -167.203125 C 131.453125 -171.703125 124.054688 -173.953125 114.859375 -173.953125 Z M 119.0625 -35.984375 C 129.0625 -35.984375 137.054688 -38.429688 143.046875 -43.328125 C 149.046875 -48.234375 152.046875 -54.882812 152.046875 -63.28125 C 152.046875 -71.28125 149.046875 -77.773438 143.046875 -82.765625 C 137.054688 -87.765625 129.0625 -90.265625 119.0625 -90.265625 L 62.375 -90.265625 L 62.375 -35.984375 Z M 119.0625 -35.984375 "/></g></g></g></svg>